<svg xmlns="http://www.w3.org/2000/svg" width="20" height="20" viewBox="0 0 20 20" fill="none">
  <path d="M8.73333 9.29182C8.94046 9.37851 9.1553 9.44548 9.375 9.49182V17.4252C9.24026 17.3904 9.10911 17.343 8.98333 17.2835L3.98333 15.0585C3.54186 14.862 3.1668 14.5417 2.90354 14.1365C2.64029 13.7312 2.50012 13.2584 2.5 12.7752V7.22516C2.50066 7.00258 2.5315 6.78112 2.59167 6.56682L8.73333 9.29182ZM12.35 7.43349L5.55833 4.24182L3.98333 4.94182C3.69929 5.06668 3.44185 5.2449 3.225 5.46682L9.23333 8.14182C9.47473 8.24895 9.7359 8.3043 10 8.3043C10.2641 8.3043 10.5253 8.24895 10.7667 8.14182L12.35 7.43349ZM16.775 5.46682C16.5581 5.2449 16.3007 5.06668 16.0167 4.94182L11.0167 2.71682C10.6971 2.57262 10.3506 2.49805 10 2.49805C9.64943 2.49805 9.30287 2.57262 8.98333 2.71682L7.075 3.56682L13.8667 6.75849L16.775 5.46682ZM17.4083 6.56682L14.4833 7.86682V9.90849C14.4833 10.0742 14.4175 10.2332 14.3003 10.3504C14.1831 10.4676 14.0241 10.5335 13.8583 10.5335C13.6926 10.5335 13.5336 10.4676 13.4164 10.3504C13.2992 10.2332 13.2333 10.0742 13.2333 9.90849V8.41682L11.2667 9.29182C11.0582 9.37477 10.8437 9.44163 10.625 9.49182V17.4252C10.7597 17.3904 10.8909 17.343 11.0167 17.2835L16.0167 15.0585C16.4581 14.862 16.8332 14.5417 17.0965 14.1365C17.3597 13.7312 17.4999 13.2584 17.5 12.7752V7.22516C17.4993 7.00258 17.4685 6.78112 17.4083 6.56682Z" fill="currentColor"/>
</svg>