<svg xmlns="http://www.w3.org/2000/svg" width="16" height="16" viewBox="0 0 16 16" fill="none">
  <path d="M14.3749 13.0489L13.3333 3.24894C13.3333 2.63282 12.856 2.13379 12.2666 2.13379H7.99998H3.73331C3.14398 2.13379 2.66664 2.63282 2.66664 3.24894L1.62504 13.0489C1.60958 13.1253 1.59998 13.2039 1.59998 13.2853C1.59998 13.9014 2.07731 14.4005 2.66664 14.4005H7.99998H13.3333C13.9226 14.4005 14.4 13.9014 14.4 13.2853C14.4 13.2039 14.3904 13.1253 14.3749 13.0489ZM10.6666 4.87037V5.47924C10.6666 7.01648 9.47038 8.26712 7.99998 8.26712C6.52958 8.26712 5.33331 7.01648 5.33331 5.47924V4.87037C5.02344 4.75551 4.79998 4.44884 4.79998 4.0853C4.79998 3.62363 5.15838 3.24894 5.59998 3.24894C6.04158 3.24894 6.39998 3.62363 6.39998 4.0853V5.47924C6.39998 6.40147 7.11784 7.15197 7.99998 7.15197C8.88211 7.15197 9.59998 6.40147 9.59998 5.47924V4.0853C9.59998 3.62363 9.95837 3.24894 10.4 3.24894C10.8416 3.24894 11.2 3.62363 11.2 4.0853C11.2 4.44884 10.9765 4.75551 10.6666 4.87037Z" fill="currentColor"/>
</svg>