<svg xmlns="http://www.w3.org/2000/svg" width="16" height="16" viewBox="0 0 16 16" fill="none">
  <path d="M13.8672 4.09001C13.8677 3.60513 13.6879 3.13737 13.3629 2.77753C13.0378 2.41769 12.5906 2.19145 12.1081 2.14272C11.6256 2.09399 11.1422 2.22625 10.7517 2.51383C10.3612 2.80141 10.0916 3.22378 9.99506 3.69896L6.43582 3.69896C5.7097 3.69896 5.01331 3.98736 4.49986 4.5007C3.98641 5.01405 3.69795 5.7103 3.69795 6.43628L3.69795 7.83857L2.8015 6.94151L2.24766 7.49523L4.08908 9.33549L5.93049 7.49523L5.37666 6.94151L4.4802 7.83857L4.4802 6.43628C4.4802 5.91772 4.68624 5.4204 5.05299 5.05373C5.41974 4.68705 5.91716 4.48105 6.43582 4.48105L9.99506 4.48105C10.0916 4.95623 10.3612 5.37861 10.7517 5.66619C11.1422 5.95377 11.6256 6.08603 12.1081 6.0373C12.5906 5.98857 13.0378 5.76233 13.3629 5.40249C13.6879 5.04265 13.8677 4.57489 13.8672 4.09001ZM13.1991 9.05941L13.753 8.50569L11.9116 6.66543L10.0702 8.50569L10.624 9.05941L11.5204 8.16235L11.5204 9.56464C11.5204 9.82141 11.4699 10.0757 11.3716 10.3129C11.2733 10.5501 11.1292 10.7656 10.9477 10.9472C10.7661 11.1288 10.5505 11.2728 10.3132 11.371C10.0759 11.4693 9.82163 11.5199 9.56482 11.5199L6.00559 11.5199C5.90866 11.0451 5.63887 10.6233 5.24853 10.3361C4.85819 10.0489 4.3751 9.91689 3.89292 9.96559C3.41074 10.0143 2.96382 10.2403 2.63881 10.5997C2.3138 10.9591 2.13385 11.4264 2.13385 11.9109C2.13385 12.3954 2.3138 12.8627 2.63881 13.2221C2.96382 13.5816 3.41074 13.8075 3.89292 13.8562C4.3751 13.9049 4.85819 13.7729 5.24853 13.4857C5.63887 13.1986 5.90866 12.7767 6.00559 12.302L9.56482 12.302C10.2909 12.302 10.9873 12.0136 11.5008 11.5002C12.0142 10.9869 12.3027 10.2906 12.3027 9.56464L12.3027 8.16235L13.1991 9.05941Z" fill="currentColor"/>
</svg>