<svg xmlns="http://www.w3.org/2000/svg" width="20" height="20" viewBox="0 0 20 20" fill="none">
  <g clip-path="url(#clip0_17754_75574)">
    <path d="M8.31418 14.8835C8.92716 14.3121 9.02156 13.4171 8.52504 12.8844C8.02853 12.3518 7.12911 12.3832 6.51613 12.9546C5.90316 13.526 5.80876 14.421 6.30527 14.9537C6.80179 15.4863 7.70121 15.4549 8.31418 14.8835Z" fill="white"/>
    <path d="M16.4224 14.8835C17.0354 14.3121 17.1298 13.4171 16.6332 12.8844C16.1367 12.3518 15.2373 12.3832 14.6243 12.9546C14.0114 13.526 13.917 14.421 14.4135 14.9537C14.91 15.4863 15.8094 15.4549 16.4224 14.8835Z" fill="white"/>
    <path d="M1.88335 7.89093C1.88335 7.53749 1.59667 7.25098 1.24303 7.25098C0.8894 7.25098 0.602722 7.53749 0.602722 7.89093C0.602722 8.24437 0.8894 8.53088 1.24303 8.53088C1.59667 8.53088 1.88335 8.24437 1.88335 7.89093Z" fill="white"/>
    <path d="M13.3926 13.7853C13.6203 12.6603 14.683 11.7663 15.8253 11.7663C16.9251 11.7663 17.7179 12.5954 17.6961 13.6615C18.8856 13.6926 19.2168 12.1263 19.2168 12.1263C19.3169 11.6883 19.4665 10.8344 19.5918 9.99627C19.6328 9.7375 19.6013 9.47242 19.5006 9.23052C19.1897 8.50467 18.8139 7.80835 18.3779 7.15002C17.9654 6.53464 17.2735 6.17014 16.4838 6.15702C16.0128 6.14952 15.5504 6.14502 15.2013 6.14502L15.1983 6.14202C15.1533 5.38902 14.6042 4.81227 13.8336 4.74327C13.3322 4.69864 11.3462 4.66602 10.393 4.66602C10.0142 4.66602 9.47088 4.67127 8.92113 4.68027V4.67802H8.91663H2.30688C2.22275 4.67797 2.13944 4.6945 2.06171 4.72667C1.98398 4.75884 1.91335 4.80602 1.85386 4.8655C1.79438 4.92499 1.7472 4.99562 1.71503 5.07335C1.68286 5.15108 1.66633 5.23439 1.66638 5.31852V5.32152C1.66638 5.49059 1.73354 5.65274 1.85309 5.7723C1.97265 5.89185 2.1348 5.95902 2.30388 5.95902H3.63625C3.79669 5.97084 3.94672 6.04289 4.05626 6.16071C4.1658 6.27852 4.22674 6.43339 4.22688 6.59427V6.59764C4.22712 6.68185 4.21076 6.76528 4.17873 6.84315C4.1467 6.92103 4.09963 6.99183 4.04021 7.05149C3.98079 7.11115 3.91018 7.15852 3.83244 7.19087C3.75469 7.22322 3.67133 7.23992 3.58713 7.24002H2.90387C2.7341 7.24002 2.57129 7.30746 2.45124 7.4275C2.33119 7.54755 2.26375 7.71037 2.26375 7.88014C2.2637 7.96423 2.28022 8.04751 2.31237 8.12522C2.34452 8.20293 2.39166 8.27354 2.45111 8.33302C2.51055 8.3925 2.58114 8.43969 2.65882 8.47188C2.73651 8.50407 2.81978 8.52064 2.90387 8.52064H3.58713C3.757 8.52064 3.91991 8.58812 4.04003 8.70824C4.16014 8.82836 4.22763 8.99127 4.22763 9.16114C4.22763 9.33101 4.16014 9.49393 4.04003 9.61404C3.91991 9.73416 3.757 9.80164 3.58713 9.80164H1.03113C0.861319 9.80164 0.698462 9.86907 0.578356 9.98911C0.458249 10.1091 0.390724 10.272 0.390625 10.4418C0.390625 10.6116 0.458106 10.7746 0.578223 10.8947C0.69834 11.0148 0.861254 11.0823 1.03113 11.0823H3.58713C3.757 11.0823 3.91991 11.1497 4.04003 11.2699C4.16014 11.39 4.22763 11.5529 4.22763 11.7228C4.22743 11.8925 4.15986 12.0552 4.03976 12.1752C3.91967 12.2951 3.75687 12.3625 3.58713 12.3625H2.79662C2.62685 12.3625 2.46404 12.43 2.34399 12.55C2.22394 12.6701 2.1565 12.8329 2.1565 13.0026C2.1565 13.1724 2.22393 13.3353 2.34397 13.4554C2.464 13.5755 2.62682 13.643 2.79662 13.6431L5.31888 13.6413L5.5285 13.1189C5.95788 12.3269 6.81213 11.7659 7.71663 11.7659C8.85925 11.7659 9.67075 12.6606 9.5815 13.7864H13.3923M7.03975 7.53814H6.18025C6.17944 7.53821 6.17867 7.53853 6.17806 7.53908C6.17745 7.53962 6.17704 7.54034 6.17688 7.54114L6.09775 8.10364C6.09763 8.10409 6.09762 8.10456 6.09772 8.10502C6.09782 8.10548 6.09802 8.1059 6.09831 8.10627C6.0986 8.10663 6.09898 8.10692 6.0994 8.10712C6.09982 8.10731 6.10028 8.10741 6.10075 8.10739H6.7405C6.7719 8.1065 6.80311 8.11262 6.83184 8.12532C6.86057 8.13802 6.88611 8.15697 6.90659 8.18079C6.92707 8.20461 6.94198 8.23271 6.95022 8.26302C6.95847 8.29333 6.95984 8.3251 6.95425 8.35602C6.94329 8.42396 6.90898 8.48596 6.85724 8.53134C6.80549 8.57672 6.73955 8.60264 6.67075 8.60464H6.03025C6.02947 8.60462 6.02871 8.60487 6.02809 8.60535C6.02748 8.60583 6.02705 8.60651 6.02688 8.60727L5.91213 9.42439C5.90116 9.49234 5.86686 9.55434 5.81511 9.59972C5.76337 9.6451 5.69742 9.67102 5.62863 9.67302C5.59723 9.67392 5.56604 9.6678 5.53732 9.6551C5.5086 9.6424 5.48308 9.62344 5.46263 9.59961C5.44217 9.57578 5.4273 9.54768 5.41911 9.51736C5.41091 9.48704 5.40959 9.45528 5.41525 9.42439L5.713 7.30489C5.7248 7.23313 5.76118 7.16771 5.81591 7.11982C5.87064 7.07193 5.94031 7.04456 6.013 7.04239H7.10913C7.14052 7.04149 7.17171 7.04761 7.20043 7.06031C7.22915 7.07301 7.25467 7.09197 7.27513 7.1158C7.29558 7.13963 7.31045 7.16773 7.31864 7.19805C7.32684 7.22836 7.32816 7.26013 7.3225 7.29102C7.31138 7.35863 7.27709 7.42026 7.2255 7.46535C7.17391 7.51044 7.10824 7.53618 7.03975 7.53814ZM9.337 7.21114C9.42629 7.29036 9.48912 7.39507 9.517 7.51114C9.54817 7.64263 9.55327 7.77895 9.532 7.91239C9.50593 8.12003 9.42095 8.31587 9.28713 8.47677C9.2054 8.57339 9.1016 8.6489 8.9845 8.69689C8.98397 8.69745 8.98368 8.69819 8.98368 8.69895C8.98368 8.69972 8.98397 8.70046 8.9845 8.70102L9.1975 9.31564C9.25488 9.48064 9.1075 9.67302 8.92413 9.67302H8.91213C8.86764 9.67432 8.82389 9.66144 8.78721 9.63622C8.75054 9.61101 8.72284 9.57477 8.70813 9.53277L8.4505 8.78277C8.45013 8.7822 8.44963 8.78174 8.44905 8.78141C8.44846 8.78108 8.4478 8.7809 8.44713 8.78089H7.89963C7.89886 8.78093 7.89813 8.78121 7.89753 8.78167C7.89692 8.78214 7.89648 8.78279 7.89625 8.78352L7.80625 9.42402C7.79529 9.49196 7.76098 9.55396 7.70924 9.59934C7.65749 9.64472 7.59155 9.67064 7.52275 9.67264C7.49136 9.67355 7.46016 9.66742 7.43144 9.65472C7.40272 9.64202 7.3772 9.62306 7.35675 9.59923C7.3363 9.5754 7.32143 9.5473 7.31323 9.51699C7.30504 9.48667 7.30372 9.45491 7.30938 9.42402L7.60713 7.30452C7.61892 7.23276 7.6553 7.16733 7.71003 7.11944C7.76476 7.07156 7.83444 7.04418 7.90713 7.04202H8.75463C8.75463 7.04202 9.12663 7.03039 9.337 7.21114ZM11.6695 7.27339C11.6593 7.33686 11.6273 7.39478 11.5789 7.43715C11.5306 7.47953 11.469 7.50371 11.4047 7.50552H10.4189C10.4181 7.50556 10.4174 7.50583 10.4168 7.5063C10.4162 7.50677 10.4157 7.50741 10.4155 7.50814L10.3371 8.06464C10.337 8.06509 10.337 8.06556 10.3371 8.06602C10.3372 8.06648 10.3374 8.0669 10.3377 8.06727C10.338 8.06763 10.3383 8.06792 10.3388 8.06812C10.3392 8.06831 10.3397 8.06841 10.3401 8.06839H11.1059C11.1352 8.06752 11.1643 8.07322 11.1912 8.08507C11.218 8.09691 11.2419 8.11461 11.261 8.13686C11.2801 8.15911 11.294 8.18535 11.3017 8.21366C11.3094 8.24198 11.3106 8.27165 11.3054 8.30052C11.2952 8.36398 11.2632 8.4219 11.2148 8.46428C11.1665 8.50666 11.1049 8.53083 11.0406 8.53264H10.2745C10.2737 8.53268 10.273 8.53296 10.2724 8.53343C10.2718 8.53389 10.2714 8.53454 10.2711 8.53527L10.177 9.20502C10.177 9.20595 10.1773 9.20685 10.178 9.20754C10.1786 9.20824 10.1794 9.20867 10.1804 9.20877H11.1655C11.1948 9.2079 11.224 9.2136 11.2508 9.22544C11.2777 9.23729 11.3015 9.25498 11.3206 9.27723C11.3398 9.29948 11.3537 9.32572 11.3613 9.35404C11.369 9.38236 11.3703 9.41203 11.365 9.44089C11.3548 9.50436 11.3228 9.56228 11.2744 9.60465C11.2261 9.64703 11.1645 9.67121 11.1003 9.67302H9.87775C9.84477 9.67348 9.81208 9.66668 9.78202 9.65311C9.75195 9.63953 9.72524 9.61951 9.70377 9.59447C9.6823 9.56942 9.6666 9.53996 9.65778 9.50817C9.64897 9.47638 9.64725 9.44304 9.65275 9.41052L9.94863 7.30602C9.96042 7.23426 9.9968 7.16883 10.0515 7.12094C10.1063 7.07306 10.1759 7.04568 10.2486 7.04352H11.4708C11.4998 7.04283 11.5286 7.04857 11.5552 7.06034C11.5817 7.0721 11.6054 7.0896 11.6243 7.11157C11.6433 7.13354 11.6572 7.15945 11.6651 7.18742C11.6729 7.2154 11.6744 7.24476 11.6695 7.27339ZM13.7174 7.27339C13.7072 7.33686 13.6752 7.39478 13.6268 7.43715C13.5785 7.47953 13.5169 7.50371 13.4526 7.50552H12.4668C12.466 7.50556 12.4653 7.50583 12.4647 7.5063C12.464 7.50677 12.4636 7.50741 12.4634 7.50814L12.3854 8.06464C12.3853 8.06509 12.3852 8.06556 12.3853 8.06602C12.3854 8.06648 12.3856 8.0669 12.3859 8.06727C12.3862 8.06763 12.3866 8.06792 12.387 8.06812C12.3874 8.06831 12.3879 8.06841 12.3884 8.06839H13.1541C13.1834 8.06752 13.2126 8.07322 13.2394 8.08507C13.2663 8.09691 13.2901 8.11461 13.3093 8.13686C13.3284 8.15911 13.3423 8.18535 13.35 8.21366C13.3576 8.24198 13.3589 8.27165 13.3536 8.30052C13.3434 8.36398 13.3114 8.4219 13.2631 8.46428C13.2147 8.50666 13.1531 8.53083 13.0889 8.53264H12.3224C12.3216 8.53268 12.3209 8.53296 12.3203 8.53343C12.3197 8.53389 12.3192 8.53454 12.319 8.53527L12.2249 9.20502C12.2249 9.20595 12.2252 9.20685 12.2258 9.20754C12.2265 9.20824 12.2273 9.20867 12.2282 9.20877H13.2134C13.2427 9.2079 13.2718 9.2136 13.2987 9.22544C13.3255 9.23729 13.3494 9.25498 13.3685 9.27723C13.3876 9.29948 13.4015 9.32572 13.4092 9.35404C13.4169 9.38236 13.4181 9.41203 13.4129 9.44089C13.4027 9.50436 13.3707 9.56228 13.3223 9.60465C13.274 9.64703 13.2124 9.67121 13.1481 9.67302H11.9256C11.8926 9.67348 11.86 9.66668 11.8299 9.65311C11.7998 9.63953 11.7731 9.61951 11.7516 9.59447C11.7302 9.56942 11.7145 9.53996 11.7057 9.50817C11.6968 9.47638 11.6951 9.44304 11.7006 9.41052L11.9965 7.30602C12.0083 7.23426 12.0447 7.16883 12.0994 7.12094C12.1541 7.07306 12.2238 7.04568 12.2965 7.04352H13.5186C13.5477 7.04283 13.5765 7.04857 13.603 7.06034C13.6296 7.0721 13.6532 7.0896 13.6722 7.11157C13.6912 7.13354 13.7051 7.15945 13.7129 7.18742C13.7207 7.2154 13.7223 7.24476 13.7174 7.27339ZM15.1424 7.03302C15.4773 7.03302 15.9108 7.03752 16.3458 7.04464C16.873 7.05327 17.3342 7.29552 17.611 7.70877C17.9066 8.15441 18.1723 8.61918 18.4064 9.10002C18.5301 9.35202 18.3025 9.68014 18.0044 9.68014H14.8075L15.1424 7.03302Z" fill="white"/>
    <path d="M8.5546 8.3202H7.9621L8.0746 7.50916H8.66672C8.66672 7.50916 9.10135 7.48105 9.0301 7.91468C9.03197 7.91468 8.9821 8.3202 8.5546 8.3202Z" fill="white"/>
  </g>
  <defs>
    <clipPath id="clip0_17754_75574">
      <rect width="19.2" height="19.2" fill="white" transform="translate(0.399994 0.400391)"/>
    </clipPath>
  </defs>
</svg>