<svg width="16" height="16" viewBox="0 0 16 16" fill="none" xmlns="http://www.w3.org/2000/svg">
<g clip-path="url(#clip0_19877_108401)">
<path d="M9.66679 8.49968C9.34959 8.50296 9.03561 8.43591 8.74743 8.30335C8.45925 8.17079 8.20402 7.976 8.00012 7.73301C7.79471 7.97424 7.5392 8.16779 7.25136 8.3002C6.96352 8.4326 6.65028 8.50067 6.33345 8.49968C6.01626 8.50296 5.70228 8.43591 5.4141 8.30335C5.12591 8.17079 4.87069 7.976 4.66679 7.73301C4.60533 7.80675 4.53848 7.87583 4.46679 7.93968C4.24235 8.14388 3.97717 8.29819 3.68873 8.39242C3.4003 8.48665 3.09517 8.51866 2.79345 8.48634C2.24738 8.41905 1.74537 8.15256 1.38367 7.73796C1.02197 7.32336 0.82604 6.78983 0.833455 6.23968V5.76634C0.832912 5.42659 0.886934 5.08896 0.993455 4.76634L2.04012 1.63301C2.11716 1.40031 2.26553 1.19778 2.46418 1.05418C2.66283 0.910579 2.90167 0.833193 3.14679 0.833008H12.8535C13.0986 0.833193 13.3374 0.910579 13.5361 1.05418C13.7347 1.19778 13.8831 1.40031 13.9601 1.63301L15.0068 4.76634C15.1133 5.08896 15.1673 5.42659 15.1668 5.76634V6.23968C15.1746 6.7878 14.9805 7.31965 14.6216 7.73394C14.2626 8.14824 13.7638 8.41603 13.2201 8.48634C12.9184 8.51953 12.613 8.48793 12.3244 8.39365C12.0359 8.29938 11.7708 8.14461 11.5468 7.93968C11.4735 7.87301 11.4001 7.79301 11.3335 7.71968C11.129 7.96299 10.874 8.15882 10.5862 8.29353C10.2983 8.42824 9.98458 8.49859 9.66679 8.49968ZM3.14679 1.83301C3.11179 1.83354 3.07778 1.84465 3.04922 1.86488C3.02066 1.88511 2.9989 1.91351 2.98679 1.94634L1.94679 5.07967C1.87456 5.29465 1.83633 5.51958 1.83345 5.74634V6.21968C1.82367 6.52063 1.92493 6.81468 2.11794 7.0458C2.31096 7.27693 2.58224 7.42898 2.88012 7.47301C3.04088 7.48966 3.20335 7.47272 3.35722 7.42328C3.5111 7.37383 3.65302 7.29295 3.77399 7.18577C3.89496 7.07859 3.99234 6.94744 4.05996 6.80065C4.12757 6.65385 4.16395 6.49461 4.16679 6.33301C4.16679 6.2004 4.21947 6.07322 4.31323 5.97946C4.407 5.88569 4.53418 5.83301 4.66679 5.83301C4.7994 5.83301 4.92657 5.88569 5.02034 5.97946C5.11411 6.07322 5.16679 6.2004 5.16679 6.33301C5.15916 6.48824 5.18411 6.64334 5.24004 6.78835C5.29597 6.93335 5.38164 7.06504 5.49153 7.17493C5.60143 7.28483 5.73311 7.3705 5.87812 7.42643C6.02312 7.48236 6.17823 7.50731 6.33345 7.49968C6.64233 7.49793 6.93806 7.37445 7.15648 7.15603C7.37489 6.93762 7.49837 6.64189 7.50012 6.33301C7.50012 6.2004 7.5528 6.07322 7.64657 5.97946C7.74034 5.88569 7.86751 5.83301 8.00012 5.83301C8.13273 5.83301 8.25991 5.88569 8.35367 5.97946C8.44744 6.07322 8.50012 6.2004 8.50012 6.33301C8.49249 6.48824 8.51744 6.64334 8.57337 6.78835C8.6293 6.93335 8.71497 7.06504 8.82486 7.17493C8.93476 7.28483 9.06645 7.3705 9.21145 7.42643C9.35645 7.48236 9.51156 7.50731 9.66679 7.49968C9.97567 7.49793 10.2714 7.37445 10.4898 7.15603C10.7082 6.93762 10.8317 6.64189 10.8335 6.33301C10.8335 6.2004 10.8861 6.07322 10.9799 5.97946C11.0737 5.88569 11.2008 5.83301 11.3335 5.83301C11.4661 5.83301 11.5932 5.88569 11.687 5.97946C11.7808 6.07322 11.8335 6.2004 11.8335 6.33301C11.8335 6.4963 11.8679 6.65776 11.9343 6.80694C12.0007 6.95612 12.0976 7.0897 12.2189 7.19904C12.3402 7.30838 12.4831 7.39104 12.6383 7.44168C12.7936 7.49232 12.9577 7.5098 13.1201 7.49301C13.418 7.44898 13.6893 7.29693 13.8823 7.0658C14.0753 6.83468 14.1766 6.54063 14.1668 6.23968V5.76634C14.1639 5.53958 14.1257 5.31465 14.0535 5.09968L13.0135 1.96634C13.0013 1.93351 12.9796 1.90511 12.951 1.88488C12.9225 1.86465 12.8884 1.85354 12.8535 1.85301L3.14679 1.83301Z" fill="#303030"/>
<path d="M13.3333 15.1665H2.66667C2.35779 15.1647 2.06206 15.0413 1.84364 14.8228C1.62523 14.6044 1.50175 14.3087 1.5 13.9998V7.65315C1.5 7.52054 1.55268 7.39337 1.64645 7.2996C1.74021 7.20583 1.86739 7.15315 2 7.15315C2.13261 7.15315 2.25979 7.20583 2.35355 7.2996C2.44732 7.39337 2.5 7.52054 2.5 7.65315V13.9998C2.5 14.044 2.51756 14.0864 2.54882 14.1177C2.58007 14.1489 2.62246 14.1665 2.66667 14.1665H13.3333C13.3775 14.1665 13.4199 14.1489 13.4512 14.1177C13.4824 14.0864 13.5 14.044 13.5 13.9998V7.64648C13.5 7.51388 13.5527 7.3867 13.6464 7.29293C13.7402 7.19916 13.8674 7.14648 14 7.14648C14.1326 7.14648 14.2598 7.19916 14.3536 7.29293C14.4473 7.3867 14.5 7.51388 14.5 7.64648V13.9998C14.4983 14.3087 14.3748 14.6044 14.1564 14.8228C13.9379 15.0413 13.6422 15.1647 13.3333 15.1665Z" fill="#303030"/>
<path d="M10.3334 15.166H5.66675C5.53468 15.1643 5.4085 15.1111 5.3151 15.0177C5.22171 14.9243 5.16847 14.7981 5.16675 14.666V11.3327C5.1685 11.0238 5.29198 10.7281 5.51039 10.5097C5.7288 10.2912 6.02454 10.1678 6.33341 10.166H9.66675C9.97563 10.1678 10.2714 10.2912 10.4898 10.5097C10.7082 10.7281 10.8317 11.0238 10.8334 11.3327V14.666C10.8317 14.7981 10.7785 14.9243 10.6851 15.0177C10.5917 15.1111 10.4655 15.1643 10.3334 15.166ZM6.16675 14.166H9.83342V11.3327C9.83342 11.2885 9.81586 11.2461 9.7846 11.2148C9.75334 11.1836 9.71095 11.166 9.66675 11.166H6.33341C6.28921 11.166 6.24682 11.1836 6.21556 11.2148C6.18431 11.2461 6.16675 11.2885 6.16675 11.3327V14.166Z" fill="#303030"/>
</g>
<defs>
<clipPath id="clip0_19877_108401">
<rect width="16" height="16" fill="white"/>
</clipPath>
</defs>
</svg>
