<svg width="16" height="16" viewBox="0 0 16 16" fill="none" xmlns="http://www.w3.org/2000/svg">
<path d="M6.98667 7.43331C7.15237 7.50266 7.32424 7.55624 7.5 7.59331V13.94C7.39221 13.9122 7.28729 13.8742 7.18667 13.8266L3.18667 12.0466C2.83349 11.8894 2.53344 11.6332 2.32283 11.309C2.11223 10.9848 2.00009 10.6066 2 10.22V5.77998C2.00053 5.60191 2.0252 5.42475 2.07333 5.25331L6.98667 7.43331ZM9.88 5.94664L4.44667 3.39331L3.18667 3.95331C2.95943 4.0532 2.75348 4.19578 2.58 4.37331L7.38667 6.51331C7.57978 6.59902 7.78872 6.6433 8 6.6433C8.21128 6.6433 8.42022 6.59902 8.61333 6.51331L9.88 5.94664ZM13.42 4.37331C13.2465 4.19578 13.0406 4.0532 12.8133 3.95331L8.81333 2.17331C8.5577 2.05795 8.28046 1.99829 8 1.99829C7.71954 1.99829 7.4423 2.05795 7.18667 2.17331L5.66 2.85331L11.0933 5.40664L13.42 4.37331ZM13.9267 5.25331L11.5867 6.29331V7.92664C11.5867 8.05925 11.534 8.18643 11.4402 8.2802C11.3465 8.37397 11.2193 8.42664 11.0867 8.42664C10.9541 8.42664 10.8269 8.37397 10.7331 8.2802C10.6393 8.18643 10.5867 8.05925 10.5867 7.92664V6.73331L9.01333 7.43331C8.84656 7.49967 8.67494 7.55316 8.5 7.59331V13.94C8.60779 13.9122 8.71271 13.8742 8.81333 13.8266L12.8133 12.0466C13.1665 11.8894 13.4666 11.6332 13.6772 11.309C13.8878 10.9848 13.9999 10.6066 14 10.22V5.77998C13.9995 5.60191 13.9748 5.42475 13.9267 5.25331Z" fill="#FA9829"/>
</svg>
