<svg width="21" height="21" viewBox="0 0 21 21" fill="none" xmlns="http://www.w3.org/2000/svg">
<path d="M18.733 17.3592L17.11 5.99496C17.0449 5.5491 16.822 5.14139 16.4818 4.84595C16.1416 4.5505 15.7067 4.38693 15.2561 4.38497H13.7339L13.4282 3.46776C12.4632 0.578526 8.33793 0.575767 7.37205 3.4678L7.06631 4.38497H5.54414C5.09362 4.38716 4.65882 4.55081 4.31866 4.84621C3.9785 5.14162 3.75553 5.54919 3.69022 5.99496L2.06723 17.3592C2.03087 17.6247 2.05156 17.8949 2.1279 18.1517C2.20424 18.4086 2.33449 18.6462 2.50994 18.8488C2.6854 19.0513 2.90203 19.2141 3.14538 19.3263C3.38874 19.4384 3.65321 19.4974 3.92117 19.4993L16.8791 19.4993C17.1471 19.4975 17.4115 19.4385 17.6549 19.3263C17.8982 19.2141 18.1149 19.0513 18.2903 18.8487C18.4658 18.6462 18.596 18.4086 18.6723 18.1517C18.7487 17.8949 18.7694 17.6247 18.733 17.3592ZM7.99003 3.67267C8.7407 1.37597 12.06 1.37647 12.8102 3.67271L13.0477 4.38497H7.75258L7.99003 3.67267ZM10.4001 16.4095C9.23612 16.4077 8.1203 15.9445 7.29724 15.1215C6.47417 14.2984 6.011 13.1826 6.00925 12.0186C6.25519 6.1927 14.5459 6.19441 14.791 12.0186C14.7892 13.1826 14.3261 14.2984 13.503 15.1215C12.6799 15.9445 11.5641 16.4077 10.4001 16.4095Z" fill="#1455AC"/>
<path d="M10.4 8.27832C9.40841 8.27956 8.45775 8.67404 7.75656 9.37523C7.05538 10.0764 6.66091 11.0271 6.65967 12.0187C6.86567 16.9807 13.9352 16.9793 14.1404 12.0187C14.1392 11.027 13.7447 10.0764 13.0435 9.37521C12.3423 8.67403 11.3917 8.27956 10.4 8.27832ZM12.6638 11.1177L10.4033 13.3782C10.3422 13.4385 10.2598 13.4722 10.174 13.4722C10.0882 13.4722 10.0058 13.4385 9.94468 13.3782L8.81608 12.2496C8.75513 12.1882 8.72094 12.1052 8.72094 12.0187C8.72094 11.9322 8.75513 11.8492 8.81608 11.7878C8.84616 11.7576 8.8819 11.7337 8.92125 11.7174C8.96059 11.701 9.00277 11.6926 9.04537 11.6926C9.08797 11.6926 9.13015 11.701 9.1695 11.7174C9.20884 11.7337 9.24458 11.7576 9.27467 11.7878L10.1756 12.6887L12.2019 10.6592C12.2631 10.5999 12.3452 10.5671 12.4304 10.5676C12.5155 10.5682 12.5971 10.6021 12.6576 10.6621C12.718 10.7222 12.7525 10.8035 12.7537 10.8887C12.7549 10.9739 12.7226 11.0561 12.6638 11.1177Z" fill="#1455AC"/>
</svg>
