<svg width="21" height="21" viewBox="0 0 21 21" fill="none" xmlns="http://www.w3.org/2000/svg">
<g clip-path="url(#clip0_19877_111088)">
<path d="M13.65 1.3H12.2382C11.9704 0.5434 11.2476 0 10.4 0C9.5524 0 8.8296 0.5434 8.5605 1.3H7.15C6.7912 1.3 6.5 1.5912 6.5 1.95V4.55C6.5 4.9088 6.7912 5.2 7.15 5.2H13.65C14.0088 5.2 14.3 4.9088 14.3 4.55V1.95C14.3 1.5912 14.0088 1.3 13.65 1.3Z" fill="#1455AC"/>
<path d="M16.9 2.59961H15.6V4.54961C15.6 5.62471 14.7251 6.49961 13.65 6.49961H7.14998C6.07488 6.49961 5.19998 5.62471 5.19998 4.54961V2.59961H3.89998C3.18368 2.59961 2.59998 3.18331 2.59998 3.89961V19.4996C2.59998 20.2289 3.17068 20.7996 3.89998 20.7996H16.9C17.6293 20.7996 18.2 20.2289 18.2 19.4996V3.89961C18.2 3.17031 17.6293 2.59961 16.9 2.59961ZM10.2102 14.1098L7.61018 16.7098C7.48278 16.8359 7.31638 16.8996 7.14998 16.8996C6.98358 16.8996 6.81718 16.8359 6.68978 16.7098L5.38978 15.4098C5.13628 15.1563 5.13628 14.7442 5.38978 14.4907C5.64328 14.2372 6.05538 14.2372 6.30888 14.4907L7.14998 15.3305L9.28978 13.1907C9.54328 12.9372 9.95538 12.9372 10.2089 13.1907C10.4624 13.4442 10.4637 13.855 10.2102 14.1098ZM10.2102 8.90981L7.61018 11.5098C7.48278 11.6359 7.31638 11.6996 7.14998 11.6996C6.98358 11.6996 6.81718 11.6359 6.68978 11.5098L5.38978 10.2098C5.13628 9.95631 5.13628 9.54421 5.38978 9.29071C5.64328 9.03721 6.05538 9.03721 6.30888 9.29071L7.14998 10.1305L9.28978 7.99071C9.54328 7.73721 9.95538 7.73721 10.2089 7.99071C10.4624 8.24421 10.4637 8.65501 10.2102 8.90981ZM14.95 15.5996H12.35C11.9912 15.5996 11.7 15.3084 11.7 14.9496C11.7 14.5908 11.9912 14.2996 12.35 14.2996H14.95C15.3088 14.2996 15.6 14.5908 15.6 14.9496C15.6 15.3084 15.3088 15.5996 14.95 15.5996ZM14.95 10.3996H12.35C11.9912 10.3996 11.7 10.1084 11.7 9.74961C11.7 9.39081 11.9912 9.09961 12.35 9.09961H14.95C15.3088 9.09961 15.6 9.39081 15.6 9.74961C15.6 10.1084 15.3088 10.3996 14.95 10.3996Z" fill="#1455AC"/>
</g>
<defs>
<clipPath id="clip0_19877_111088">
<rect width="20.8" height="20.8" fill="white"/>
</clipPath>
</defs>
</svg>
