<svg width="19" height="19" viewBox="0 0 19 19" fill="none" xmlns="http://www.w3.org/2000/svg">
<path d="M9.49984 0.791992C4.69804 0.791992 0.791504 4.69853 0.791504 9.50033C0.791504 14.3021 4.69804 18.2087 9.49984 18.2087C14.3016 18.2087 18.2082 14.3021 18.2082 9.50033C18.2082 4.69853 14.3016 0.791992 9.49984 0.791992Z" fill="#1455AC"/>
<path d="M13.2262 12.1073C13.5355 12.4163 13.5355 12.9177 13.2262 13.2267C13.0718 13.3813 12.8691 13.4587 12.6665 13.4587C12.4639 13.4587 12.2612 13.3813 12.1068 13.2267L9.49984 10.6198L6.8929 13.2267C6.73847 13.3813 6.53573 13.4587 6.33317 13.4587C6.13062 13.4587 5.92787 13.3813 5.77344 13.2267C5.46419 12.9177 5.46419 12.4163 5.77344 12.1073L8.38037 9.50033L5.77344 6.89339C5.46419 6.58434 5.46419 6.08298 5.77344 5.77393C6.0823 5.46468 6.58405 5.46468 6.8929 5.77393L9.49984 8.38086L12.1068 5.77393C12.4156 5.46468 12.9174 5.46468 13.2262 5.77393C13.5355 6.08298 13.5355 6.58434 13.2262 6.89339L10.6193 9.50033L13.2262 12.1073Z" fill="white"/>
</svg>
