<svg width="21" height="21" viewBox="0 0 21 21" fill="none" xmlns="http://www.w3.org/2000/svg">
<g clip-path="url(#clip0_19877_111451)">
<path d="M7.77829 4.5708C7.77829 3.85812 7.19853 3.27832 6.48584 3.27832C5.77316 3.27832 5.19336 3.85812 5.19336 4.5708C5.19336 5.28349 5.77316 5.86329 6.48584 5.86329C7.19853 5.86329 7.77829 5.28349 7.77829 4.5708Z" fill="#1455AC"/>
<path d="M8.73723 11.4254H7.21172C8.50201 10.2654 11.0611 7.58489 11.0611 4.57039C11.0611 2.04352 9.01279 0 6.48591 0C3.95908 0 1.91064 2.04352 1.91064 4.57039C1.91064 7.58489 4.46982 10.2654 5.76015 11.4254H2.61216V12.6442H8.53187C8.55722 12.2277 8.62624 11.8196 8.73723 11.4254ZM3.97464 4.57039C3.97464 3.18569 5.10117 2.05916 6.48587 2.05916C7.87057 2.05916 8.99707 3.18569 8.99707 4.57039C8.99707 5.9551 7.87057 7.08163 6.48587 7.08163C5.10117 7.08163 3.97464 5.9551 3.97464 4.57039Z" fill="#1455AC"/>
<path d="M14.3145 14.2959C15.0283 14.2959 15.6069 13.7172 15.6069 13.0034C15.6069 12.2896 15.0283 11.7109 14.3145 11.7109C13.6006 11.7109 13.022 12.2896 13.022 13.0034C13.022 13.7172 13.6006 14.2959 14.3145 14.2959Z" fill="#1455AC"/>
<path d="M15.3405 19.5811C16.6894 18.3062 18.8897 15.7983 18.8897 13.003C18.8897 10.4761 16.8414 8.43262 14.3145 8.43262C11.7876 8.43262 9.73917 10.4761 9.73917 13.003C9.73917 15.7983 11.9395 18.3062 13.2884 19.5811H7.33043C6.54219 19.5811 5.90088 18.9398 5.90088 18.1515C5.90088 17.3632 6.54219 16.7219 7.33043 16.7219H9.51927C9.46264 16.6143 9.08649 15.8011 8.97924 15.5032H7.33043C5.87017 15.5032 4.68213 16.6912 4.68213 18.1515C4.68213 19.6118 5.87017 20.7998 7.33043 20.7998H18.1882V19.5811H15.3405ZM14.3144 10.4918C15.6991 10.4918 16.8256 11.6183 16.8256 13.003C16.8256 14.3877 15.6991 15.5142 14.3144 15.5142C12.9297 15.5142 11.8032 14.3877 11.8032 13.003C11.8032 11.6183 12.9297 10.4918 14.3144 10.4918Z" fill="#1455AC"/>
</g>
<defs>
<clipPath id="clip0_19877_111451">
<rect width="20.8" height="20.8" fill="white"/>
</clipPath>
</defs>
</svg>
