<svg width="18" height="18" viewBox="0 0 18 18" fill="none" xmlns="http://www.w3.org/2000/svg">
<g clip-path="url(#clip0_19877_111480)">
<path fill-rule="evenodd" clip-rule="evenodd" d="M16.4814 8.26225L2.37111 0.115488C2.24205 0.0403678 2.0955 0.000537609 1.94617 0H1.94371C1.79431 0.000593386 1.64768 0.0404441 1.51853 0.115559C1.38847 0.189733 1.28049 0.297181 1.20567 0.426875C1.13085 0.556568 1.09189 0.703834 1.09279 0.853558V17.1469C1.0922 17.2968 1.1312 17.4441 1.20586 17.574C1.28051 17.7039 1.38816 17.8117 1.5179 17.8866C1.64765 17.9616 1.79489 18.0009 1.94471 18.0006C2.09453 18.0003 2.24161 17.9604 2.37107 17.885L16.4814 9.73821C16.6109 9.66342 16.7185 9.55585 16.7933 9.42631C16.8681 9.29677 16.9075 9.14981 16.9075 9.00023C16.9075 8.85064 16.8681 8.70369 16.7933 8.57415C16.7185 8.4446 16.6109 8.33703 16.4814 8.26225Z" fill="#1455AC"/>
</g>
<defs>
<clipPath id="clip0_19877_111480">
<rect width="18" height="18" fill="white"/>
</clipPath>
</defs>
</svg>
