<svg width="20" height="20" viewBox="0 0 20 20" fill="none" xmlns="http://www.w3.org/2000/svg">
<path d="M14.167 12.9762C13.5399 12.9759 12.924 12.8105 12.3812 12.4964C11.8385 12.8105 11.2226 12.9759 10.5955 12.9762H9.40504C8.77711 12.9754 8.16074 12.8073 7.61932 12.4893C7.07792 12.8074 6.46153 12.9754 5.8336 12.9762H5.23836C4.61075 12.976 3.99447 12.8089 3.45264 12.4922V15.3571C3.45264 15.8307 3.64077 16.2849 3.97566 16.6198C4.31055 16.9547 4.76475 17.1428 5.23836 17.1428H14.7622C15.2358 17.1428 15.69 16.9547 16.0249 16.6198C16.3598 16.2849 16.5479 15.8307 16.5479 15.3571V12.4928C16.0059 12.8091 15.3897 12.9759 14.7622 12.9762H14.167Z" fill="#F7C331"/>
<path d="M12.976 2.85718V6.42862H11.7855V2.85718H8.21409V6.42862H7.02361V2.85718H4.16646L2.87122 8.68041L2.85693 9.40482C2.85693 10.0363 3.10778 10.6419 3.5543 11.0884C4.00082 11.5349 4.60642 11.7858 5.23789 11.7858H5.83313C6.17236 11.7847 6.50738 11.7107 6.81548 11.5687C7.12359 11.4268 7.39757 11.2203 7.61885 10.9632C7.84014 11.2203 8.11412 11.4268 8.42222 11.5687C8.73033 11.7107 9.06535 11.7847 9.40457 11.7858H10.5951C10.933 11.786 11.2672 11.714 11.5751 11.5747C11.8831 11.4354 12.1577 11.232 12.3808 10.978C12.6038 11.232 12.8785 11.4354 13.1864 11.5747C13.4944 11.714 13.8285 11.786 14.1665 11.7858H14.7617C15.3932 11.7858 15.9988 11.5349 16.4453 11.0884C16.8918 10.6419 17.1427 10.0363 17.1427 9.40482V8.80958L15.8332 2.85718H12.976Z" fill="#E5354B"/>
</svg>
