<svg width="16" height="16" viewBox="0 0 16 16" fill="none" xmlns="http://www.w3.org/2000/svg">
<path d="M15.2665 8.74612V11.5761H11.1665V5.93945H13.9932L15.2665 8.74612Z" fill="#D8D8D8"/>
<path d="M15.2669 8.74612V8.75945C15.1743 8.75912 15.0789 8.76145 14.9869 8.74612C14.2743 8.62712 13.6413 8.39479 13.1143 7.87745C12.5949 7.36745 12.2596 6.66612 12.2036 5.93945H13.9936L14.2803 6.56945L15.2669 8.74612Z" fill="#79CCBC"/>
<path d="M14.9869 8.74698C15.0789 8.76231 15.1743 8.75998 15.2669 8.76031V8.74698L14.2803 6.57031L13.3916 8.11431C13.8589 8.46831 14.3949 8.64831 14.9869 8.74698Z" fill="#70C1B3"/>
<path d="M15.267 9.68359V10.4969H14.787C14.657 10.4969 14.5503 10.3469 14.5503 10.1636V10.0169C14.5503 9.83359 14.657 9.68359 14.787 9.68359H15.267Z" fill="#FFE066"/>
<path d="M11.1667 3.91651V11.5765H2.17341C1.75007 11.5765 1.40674 11.2032 1.40674 10.7465L1.43007 10.4998L2.43007 3.72651C2.50674 3.36318 2.81007 3.08984 3.17341 3.08984H10.4001C10.8234 3.08984 11.1667 3.46318 11.1667 3.91651Z" fill="#F25F5C"/>
<path d="M9.66347 4.93073V4.93406L9.33347 7.72073L9.33014 7.74073L7.89014 8.8474H4.89014L5.22347 6.04073L6.68014 4.91406L9.66347 4.93073Z" fill="#FFE066"/>
<path d="M13.2166 12.9108C13.953 12.9108 14.55 12.3139 14.55 11.5775C14.55 10.8411 13.953 10.2441 13.2166 10.2441C12.4803 10.2441 11.8833 10.8411 11.8833 11.5775C11.8833 12.3139 12.4803 12.9108 13.2166 12.9108Z" fill="#50514F"/>
<path d="M13.217 12.2396C13.5851 12.2396 13.8836 11.9411 13.8836 11.5729C13.8836 11.2047 13.5851 10.9062 13.217 10.9062C12.8488 10.9062 12.5503 11.2047 12.5503 11.5729C12.5503 11.9411 12.8488 12.2396 13.217 12.2396Z" fill="#D8D8D8"/>
<path d="M4.33675 12.9108C5.07313 12.9108 5.67008 12.3139 5.67008 11.5775C5.67008 10.8411 5.07313 10.2441 4.33675 10.2441C3.60037 10.2441 3.00342 10.8411 3.00342 11.5775C3.00342 12.3139 3.60037 12.9108 4.33675 12.9108Z" fill="#50514F"/>
<path d="M4.66999 4.7474C4.66999 4.93073 4.51999 5.08073 4.33665 5.08073H1.98665C1.79999 5.08073 1.65332 4.93073 1.65332 4.7474C1.65332 4.56406 1.79999 4.41406 1.98665 4.41406H4.33665C4.51999 4.41406 4.66999 4.56406 4.66999 4.7474Z" fill="#FFE066"/>
<path d="M2.96335 8.7474C2.96335 8.93073 2.81335 9.08073 2.63002 9.08073H1.60335C1.41669 9.08073 1.27002 8.93073 1.27002 8.7474C1.27002 8.56406 1.41669 8.41406 1.60335 8.41406H2.63002C2.81335 8.41406 2.96335 8.56406 2.96335 8.7474Z" fill="#FFE066"/>
<path d="M3.39007 6.71615C3.39007 6.90281 3.24007 7.04948 3.05673 7.04948H1.06673C0.883398 7.04948 0.733398 6.90281 0.733398 6.71615C0.733398 6.53281 0.883398 6.38281 1.06673 6.38281H3.05673C3.24007 6.38281 3.39007 6.53281 3.39007 6.71615Z" fill="#FFE066"/>
<path d="M15.267 11.1224V11.5757H14.5503C14.5503 10.8391 13.9537 10.2424 13.217 10.2424C12.4803 10.2424 11.8837 10.8391 11.8837 11.5757H11.167V11.1224H11.6137C11.6137 10.3857 12.4803 9.78906 13.217 9.78906C13.9537 9.78906 14.907 10.3857 14.907 11.1224H15.267Z" fill="#C9C9C9"/>
<path d="M9.66363 4.93073V4.93406L8.22363 6.04073H5.22363L6.6803 4.91406L9.66363 4.93073Z" fill="#E2BF5D"/>
<path d="M9.66347 4.93359L9.33347 7.72026L9.33014 7.74026L7.89014 8.84693L8.22347 6.04026L9.66347 4.93359Z" fill="#F2CF61"/>
<path d="M6.02341 11.1224C6.02341 10.3857 5.07341 9.78906 4.33674 9.78906C3.60007 9.78906 2.71007 10.3857 2.71007 11.1224H2.17341C1.81674 11.1224 1.51674 10.8557 1.43007 10.4991L1.40674 10.7457C1.40674 11.2024 1.75007 11.5757 2.17341 11.5757H3.0034C3.0034 10.8391 3.60007 10.2424 4.33674 10.2424C5.07341 10.2424 5.67007 10.8391 5.67007 11.5757H11.1667V11.1224H6.02341Z" fill="#E25959"/>
<path d="M4.33659 12.2396C4.70478 12.2396 5.00326 11.9411 5.00326 11.5729C5.00326 11.2047 4.70478 10.9062 4.33659 10.9062C3.9684 10.9062 3.66992 11.2047 3.66992 11.5729C3.66992 11.9411 3.9684 12.2396 4.33659 12.2396Z" fill="#D8D8D8"/>
</svg>
