<svg width="16" height="16" viewBox="0 0 16 16" fill="none" xmlns="http://www.w3.org/2000/svg">
<path fill-rule="evenodd" clip-rule="evenodd" d="M7.50294 12.2945L6.85295 11.646C6.65745 11.451 6.34095 11.4515 6.14595 11.647C5.95095 11.8425 5.95145 12.159 6.14695 12.354L7.65095 13.854C7.74445 13.9475 7.87195 14 8.00445 14C8.13695 14 8.26395 13.947 8.35795 13.853L9.85395 12.353C10.0489 12.1575 10.0484 11.841 9.85295 11.646C9.65745 11.451 9.34095 11.4515 9.14595 11.647L8.50294 12.2915L8.49995 9.4995C8.49945 9.2235 8.27545 8.9995 7.99945 9C7.72345 9.0005 7.49945 9.2245 7.49995 9.5005L7.50294 12.2945ZM5.72845 13L5.61495 12.887C5.12545 12.3985 5.12445 11.605 5.61295 11.115C5.92095 10.8065 6.35045 10.692 6.74845 10.7725L6.74695 9.5015C6.74645 8.81 7.30695 8.248 7.99845 8.247C8.68995 8.2465 9.25194 8.807 9.25294 9.4985L9.25445 10.7715C9.65045 10.693 10.0774 10.8065 10.3849 11.113C10.8744 11.6015 10.8754 12.395 10.3869 12.885L10.2719 13H12.4999C14.1554 13 15.4999 11.6555 15.4999 10C15.4999 7.84 13.8674 7.233 12.9644 7.0655C12.9879 6.8805 12.9999 6.6915 12.9999 6.5C12.9999 4.0165 10.9834 2 8.49995 2C6.35595 2 4.56045 3.5025 4.10945 5.5105C2.10845 5.5865 0.507446 7.2345 0.507446 9.254C0.507446 11.3215 2.18645 13 4.25395 13H5.72845Z" fill="#00C3EF"/>
</svg>
