<svg width="16" height="16" viewBox="0 0 16 16" fill="none" xmlns="http://www.w3.org/2000/svg">
<g clip-path="url(#clip0_19880_144363)">
<path d="M6.43026 11.7677C6.9283 11.3034 7.00501 10.5762 6.60159 10.1435C6.19816 9.7107 5.46739 9.73624 4.96935 10.2005C4.47131 10.6648 4.3946 11.392 4.79802 11.8247C5.20144 12.2575 5.93222 12.232 6.43026 11.7677Z" fill="white"/>
<path d="M13.0182 11.7677C13.5163 11.3034 13.593 10.5762 13.1895 10.1435C12.7861 9.7107 12.0553 9.73624 11.5573 10.2005C11.0593 10.6648 10.9826 11.392 11.386 11.8247C11.7894 12.2575 12.5202 12.232 13.0182 11.7677Z" fill="white"/>
<path d="M1.20524 6.08625C1.20524 5.79908 0.972316 5.56628 0.684988 5.56628C0.39766 5.56628 0.164734 5.79908 0.164734 6.08625C0.164734 6.37341 0.39766 6.60621 0.684988 6.60621C0.972316 6.60621 1.20524 6.37341 1.20524 6.08625Z" fill="white"/>
<path d="M10.5565 10.8752C10.7414 9.96115 11.6049 9.23477 12.533 9.23477C13.4267 9.23477 14.0708 9.90844 14.0531 10.7747C15.0196 10.8 15.2886 9.52727 15.2886 9.52727C15.3699 9.1714 15.4915 8.47762 15.5933 7.79665C15.6266 7.5864 15.601 7.37102 15.5192 7.17448C15.2666 6.58473 14.9613 6.01897 14.607 5.48407C14.2719 4.98408 13.7097 4.68792 13.068 4.67726C12.6853 4.67116 12.3097 4.66751 12.026 4.66751L12.0236 4.66507C11.987 4.05326 11.5409 3.58465 10.9148 3.52859C10.5074 3.49233 8.89382 3.46582 8.1193 3.46582C7.81157 3.46582 7.37007 3.47009 6.9234 3.4774V3.47557H6.91975H1.54932C1.48097 3.47553 1.41328 3.48896 1.35013 3.5151C1.28697 3.54124 1.22958 3.57957 1.18125 3.6279C1.13292 3.67624 1.09459 3.73362 1.06845 3.79678C1.04231 3.85994 1.02888 3.92762 1.02892 3.99598V3.99841C1.02892 4.13579 1.08349 4.26754 1.18063 4.36467C1.27777 4.46181 1.40951 4.51638 1.54689 4.51638H2.62944C2.75979 4.52599 2.8817 4.58453 2.9707 4.68026C3.0597 4.77598 3.10922 4.90182 3.10932 5.03252V5.03527C3.10952 5.10368 3.09623 5.17147 3.07021 5.23474C3.04418 5.29802 3.00593 5.35554 2.95766 5.40402C2.90938 5.4525 2.85201 5.49098 2.78884 5.51726C2.72568 5.54355 2.65794 5.55712 2.58953 5.55719H2.03439C1.89645 5.55719 1.76416 5.61199 1.66662 5.70953C1.56908 5.80707 1.51428 5.93936 1.51428 6.0773C1.51424 6.14562 1.52767 6.21329 1.55379 6.27642C1.57991 6.33956 1.61821 6.39693 1.66651 6.44526C1.71481 6.49359 1.77216 6.53193 1.83528 6.55808C1.8984 6.58424 1.96606 6.5977 2.03439 6.5977H2.58953C2.72755 6.5977 2.85991 6.65253 2.95751 6.75013C3.0551 6.84772 3.10993 6.98009 3.10993 7.11811C3.10993 7.25613 3.0551 7.3885 2.95751 7.48609C2.85991 7.58369 2.72755 7.63852 2.58953 7.63852H0.512777C0.374809 7.63852 0.242488 7.6933 0.144902 7.79083C0.0473154 7.88836 -0.00754862 8.02065 -0.00762939 8.15862C-0.00762939 8.29664 0.047199 8.429 0.144794 8.5266C0.242389 8.62419 0.374757 8.67902 0.512777 8.67902H2.58953C2.72755 8.67902 2.85991 8.73385 2.95751 8.83145C3.0551 8.92904 3.10993 9.06141 3.10993 9.19943C3.10977 9.33734 3.05487 9.46955 2.95729 9.56702C2.85972 9.66448 2.72744 9.71923 2.58953 9.71923H1.94725C1.80931 9.71923 1.67702 9.77402 1.57948 9.87156C1.48194 9.9691 1.42714 10.1014 1.42714 10.2393C1.42714 10.3773 1.48193 10.5096 1.57946 10.6072C1.67699 10.7048 1.80928 10.7597 1.94725 10.7597L3.99657 10.7582L4.16689 10.3338C4.51576 9.69028 5.20984 9.23447 5.94475 9.23447C6.87313 9.23447 7.53247 9.96145 7.45996 10.8761H10.5562M5.39479 5.79942H4.69644C4.69578 5.79948 4.69516 5.79974 4.69466 5.80018C4.69417 5.80062 4.69383 5.80121 4.6937 5.80186L4.62941 6.25889C4.62931 6.25926 4.62931 6.25964 4.62939 6.26001C4.62947 6.26038 4.62963 6.26073 4.62987 6.26102C4.6301 6.26132 4.6304 6.26156 4.63075 6.26171C4.63109 6.26187 4.63147 6.26195 4.63185 6.26194H5.15164C5.17716 6.26121 5.20251 6.26619 5.22586 6.27651C5.2492 6.28683 5.26995 6.30222 5.28659 6.32158C5.30323 6.34093 5.31534 6.36376 5.32204 6.38839C5.32874 6.41301 5.32986 6.43883 5.32532 6.46395C5.31641 6.51915 5.28854 6.56953 5.24649 6.6064C5.20445 6.64327 5.15087 6.66433 5.09497 6.66595H4.57457C4.57393 6.66594 4.57331 6.66614 4.57281 6.66653C4.57231 6.66692 4.57196 6.66747 4.57182 6.66809L4.47859 7.332C4.46968 7.38721 4.44181 7.43758 4.39977 7.47445C4.35772 7.51132 4.30414 7.53238 4.24825 7.53401C4.22274 7.53474 4.19739 7.52977 4.17406 7.51945C4.15072 7.50913 4.12999 7.49373 4.11337 7.47436C4.09675 7.455 4.08467 7.43217 4.07801 7.40754C4.07135 7.38291 4.07028 7.3571 4.07488 7.332L4.3168 5.60991C4.32639 5.5516 4.35594 5.49844 4.40041 5.45954C4.44488 5.42063 4.50149 5.39839 4.56055 5.39663H5.45115C5.47666 5.39589 5.502 5.40086 5.52534 5.41118C5.54868 5.4215 5.56941 5.43691 5.58603 5.45627C5.60264 5.47563 5.61473 5.49846 5.62139 5.52309C5.62804 5.54773 5.62912 5.57353 5.62452 5.59863C5.61549 5.65357 5.58762 5.70364 5.54571 5.74028C5.50379 5.77692 5.45043 5.79783 5.39479 5.79942ZM7.2613 5.53373C7.33385 5.5981 7.3849 5.68318 7.40755 5.77748C7.43288 5.88432 7.43702 5.99508 7.41974 6.1035C7.39855 6.27221 7.32951 6.43133 7.22078 6.56205C7.15438 6.64056 7.07003 6.70191 6.97489 6.74091C6.97447 6.74136 6.97423 6.74196 6.97423 6.74258C6.97423 6.74321 6.97447 6.7438 6.97489 6.74426L7.14796 7.24364C7.19457 7.3777 7.07483 7.53401 6.92584 7.53401H6.91609C6.87994 7.53507 6.8444 7.5246 6.8146 7.50411C6.7848 7.48362 6.76229 7.45418 6.75034 7.42005L6.54102 6.81068C6.54072 6.81022 6.54032 6.80984 6.53984 6.80958C6.53936 6.80931 6.53882 6.80917 6.53828 6.80916H6.09343C6.09281 6.80919 6.09222 6.80941 6.09173 6.80979C6.09124 6.81017 6.09088 6.8107 6.09069 6.81129L6.01757 7.3317C6.00866 7.3869 5.98079 7.43728 5.93874 7.47415C5.8967 7.51102 5.84312 7.53208 5.78722 7.5337C5.76172 7.53444 5.73637 7.52946 5.71303 7.51915C5.6897 7.50883 5.66896 7.49342 5.65235 7.47406C5.63573 7.4547 5.62365 7.43186 5.61699 7.40723C5.61033 7.3826 5.60926 7.35679 5.61385 7.3317L5.85578 5.6096C5.86536 5.5513 5.89492 5.49814 5.93939 5.45923C5.98386 5.42032 6.04047 5.39808 6.09953 5.39632H6.78812C6.78812 5.39632 7.09037 5.38688 7.2613 5.53373ZM9.15646 5.58431C9.14817 5.63588 9.12215 5.68294 9.08288 5.71737C9.04361 5.7518 8.99355 5.77145 8.94135 5.77291H8.14032C8.1397 5.77295 8.13911 5.77317 8.13862 5.77355C8.13813 5.77393 8.13777 5.77445 8.13758 5.77505L8.0739 6.2272C8.07381 6.22757 8.0738 6.22795 8.07388 6.22832C8.07396 6.22869 8.07412 6.22904 8.07436 6.22934C8.07459 6.22963 8.0749 6.22987 8.07524 6.23003C8.07558 6.23019 8.07596 6.23026 8.07634 6.23025H8.69851C8.72234 6.22955 8.74602 6.23417 8.76783 6.2438C8.78964 6.25342 8.80902 6.2678 8.82455 6.28588C8.84009 6.30396 8.85139 6.32528 8.85763 6.34828C8.86387 6.37129 8.86488 6.3954 8.86061 6.41885C8.85232 6.47042 8.8263 6.51748 8.78703 6.55191C8.74776 6.58634 8.6977 6.60598 8.6455 6.60745H8.02302C8.0224 6.60749 8.0218 6.60771 8.02131 6.60809C8.02082 6.60847 8.02046 6.60899 8.02028 6.60959L7.9438 7.15376C7.9438 7.15452 7.94408 7.15525 7.94458 7.15581C7.94509 7.15637 7.94579 7.15673 7.94654 7.1568H8.74696C8.77078 7.1561 8.79447 7.16073 8.81627 7.17035C8.83808 7.17998 8.85746 7.19436 8.873 7.21243C8.88854 7.23051 8.89984 7.25183 8.90607 7.27484C8.91231 7.29785 8.91333 7.32196 8.90905 7.34541C8.90077 7.39697 8.87475 7.44403 8.83548 7.47846C8.79621 7.5129 8.74615 7.53254 8.69394 7.53401H7.70066C7.67386 7.53438 7.6473 7.52886 7.62288 7.51783C7.59845 7.5068 7.57674 7.49054 7.5593 7.47019C7.54186 7.44984 7.5291 7.4259 7.52194 7.40007C7.51477 7.37424 7.51338 7.34715 7.51785 7.32073L7.75825 5.61082C7.76783 5.55252 7.79739 5.49936 7.84186 5.46045C7.88632 5.42154 7.94294 5.3993 8.002 5.39754H8.99497C9.01857 5.39698 9.04199 5.40165 9.06357 5.41121C9.08514 5.42077 9.10434 5.43498 9.11977 5.45283C9.13521 5.47069 9.1465 5.49173 9.15284 5.51446C9.15918 5.53719 9.16042 5.56105 9.15646 5.58431ZM10.8204 5.58431C10.8121 5.63588 10.7861 5.68294 10.7468 5.71737C10.7075 5.7518 10.6575 5.77145 10.6052 5.77291H9.80422C9.8036 5.77295 9.80301 5.77317 9.80252 5.77355C9.80203 5.77393 9.80167 5.77445 9.80148 5.77505L9.7381 6.2272C9.73801 6.22757 9.738 6.22795 9.73808 6.22832C9.73816 6.22869 9.73833 6.22904 9.73856 6.22934C9.7388 6.22963 9.7391 6.22987 9.73944 6.23003C9.73979 6.23019 9.74016 6.23026 9.74054 6.23025H10.3627C10.3865 6.22955 10.4102 6.23417 10.432 6.2438C10.4538 6.25342 10.4732 6.2678 10.4888 6.28588C10.5043 6.30396 10.5156 6.32528 10.5218 6.34828C10.5281 6.37129 10.5291 6.3954 10.5248 6.41885C10.5165 6.47042 10.4905 6.51748 10.4512 6.55191C10.412 6.58634 10.3619 6.60598 10.3097 6.60745H9.68692C9.6863 6.60749 9.6857 6.60771 9.68521 6.60809C9.68472 6.60847 9.68436 6.60899 9.68418 6.60959L9.6077 7.15376C9.60769 7.15452 9.60797 7.15525 9.60848 7.15581C9.60899 7.15637 9.60969 7.15673 9.61044 7.1568H10.4109C10.4347 7.1561 10.4584 7.16073 10.4802 7.17035C10.502 7.17998 10.5214 7.19436 10.5369 7.21243C10.5524 7.23051 10.5637 7.25183 10.57 7.27484C10.5762 7.29785 10.5772 7.32196 10.5729 7.34541C10.5647 7.39697 10.5386 7.44403 10.4994 7.47846C10.4601 7.5129 10.41 7.53254 10.3578 7.53401H9.36456C9.33776 7.53438 9.3112 7.52886 9.28677 7.51783C9.26234 7.5068 9.24064 7.49054 9.2232 7.47019C9.20575 7.44984 9.193 7.4259 9.18584 7.40007C9.17867 7.37424 9.17728 7.34715 9.18175 7.32073L9.42214 5.61082C9.43173 5.55252 9.46129 5.49936 9.50575 5.46045C9.55022 5.42154 9.60683 5.3993 9.66589 5.39754H10.6589C10.6825 5.39698 10.7059 5.40165 10.7275 5.41121C10.749 5.42077 10.7682 5.43498 10.7837 5.45283C10.7991 5.47069 10.8104 5.49173 10.8167 5.51446C10.8231 5.53719 10.8243 5.56105 10.8204 5.58431ZM11.9782 5.38901C12.2503 5.38901 12.6025 5.39266 12.9559 5.39845C13.3843 5.40546 13.7591 5.60229 13.9839 5.93805C14.2241 6.30014 14.44 6.67777 14.6302 7.06845C14.7307 7.2732 14.5458 7.5398 14.3035 7.5398H11.7061L11.9782 5.38901Z" fill="white"/>
<path d="M6.62563 6.43503H6.14423L6.23563 5.77606H6.71673C6.71673 5.77606 7.06987 5.75322 7.01198 6.10555C7.0135 6.10555 6.97298 6.43503 6.62563 6.43503Z" fill="white"/>
</g>
<defs>
<clipPath id="clip0_19880_144363">
<rect width="15.6" height="15.6" fill="white"/>
</clipPath>
</defs>
</svg>
