<svg xmlns="http://www.w3.org/2000/svg" width="60" height="60" viewBox="0 0 60 60" fill="none">
  <path d="M43.798 16.3014C44.1642 16.6676 44.6439 16.8507 45.1237 16.8507C45.6034 16.8507 46.0831 16.6676 46.4493 16.3014L48.9533 13.7974L51.4573 16.3014C51.8235 16.6676 52.3032 16.8507 52.783 16.8507C53.2627 16.8507 53.7424 16.6676 54.1086 16.3014C54.8411 15.569 54.8411 14.3824 54.1086 13.65L51.6047 11.1461L54.1086 8.64209C54.8411 7.90967 54.8411 6.72314 54.1086 5.99072C53.3762 5.2583 52.1897 5.2583 51.4573 5.99072L48.9533 8.49469L46.4493 5.99072C45.7169 5.2583 44.5304 5.2583 43.798 5.99072C43.0656 6.72314 43.0656 7.90967 43.798 8.64209L46.3019 11.1461L43.798 13.65C43.0656 14.3824 43.0656 15.569 43.798 16.3014Z" fill="currentColor" fill-opacity="0.6"/>
  <path d="M52.8563 20.6059H52.7814C51.4125 20.6059 50.0251 20.0808 48.9563 19.0684C47.8689 20.0808 46.5 20.6059 45.1313 20.6059C43.9501 20.6059 42.75 20.2309 41.7564 19.4809C41.5876 25.7997 36.3751 30.8808 30.0001 30.8808C23.5125 30.8808 18.225 25.6121 18.225 19.1247C18.225 18.0747 19.0688 17.2497 20.1 17.2497C21.1501 17.2497 21.975 18.0747 21.975 19.1247C21.975 23.5309 25.5751 27.1308 30.0001 27.1308C34.425 27.1308 38.0251 23.5309 38.0251 19.1247C38.0251 18.0747 38.85 17.2497 39.9001 17.2497H39.9939C39.0938 15.2434 39.45 12.8246 41.0251 11.1371C40.0313 10.0872 39.5251 8.71832 39.5063 7.34961H14.2314C11.3438 7.34961 8.92509 9.41206 8.47511 12.2621L4.10632 39.7497H55.8938L52.8563 20.6059Z" fill="currentColor" fill-opacity="0.6"/>
  <path d="M3.7876 43.5C3.91886 45.5812 4.70633 47.5875 6.09381 49.2187C7.96881 51.3937 10.6688 52.6499 13.5375 52.6499H46.4626C49.3313 52.6499 52.0313 51.3937 53.9063 49.2187C55.2938 47.5875 56.0813 45.5812 56.2125 43.5H3.7876Z" fill="currentColor" fill-opacity="0.6"/>
</svg>