<svg xmlns="http://www.w3.org/2000/svg" width="50" height="50" viewBox="0 0 50 50" fill="none">
  <g clip-path="url(#clip0_17754_76558)">
    <path fill-rule="evenodd" clip-rule="evenodd" d="M26.0742 9.375H45.6055V40.625H26.0742V9.375Z" fill="#EBEAE0"/>
    <path fill-rule="evenodd" clip-rule="evenodd" d="M0.488281 9.375H20.0195V40.625H0.488281V9.375Z" fill="#EBEAE0"/>
    <path d="M20.0195 34.7656C16.7871 34.7656 14.1602 37.3926 14.1602 40.625H20.0195V34.7656Z" fill="#D7D5C1"/>
    <path d="M45.6055 34.7656C42.373 34.7656 39.7461 37.3926 39.7461 40.625H45.6055V34.7656Z" fill="#D7D5C1"/>
    <path d="M20.0195 44.5312C22.1769 44.5312 23.9258 42.7824 23.9258 40.625C23.9258 38.4676 22.1769 36.7188 20.0195 36.7188C17.8622 36.7188 16.1133 38.4676 16.1133 40.625C16.1133 42.7824 17.8622 44.5312 20.0195 44.5312Z" fill="#DB3429" fill-opacity="0.6"/>
    <path fill-rule="evenodd" clip-rule="evenodd" d="M21.1372 38.8086L21.8276 39.499L18.9002 42.4264L18.2098 41.736L21.1372 38.8086Z" fill="#1F3E75" fill-opacity="0.6"/>
    <path fill-rule="evenodd" clip-rule="evenodd" d="M18.9033 38.8105L21.8307 41.738L21.1403 42.4284L18.2129 39.501L18.9033 38.8105Z" fill="#1F3E75" fill-opacity="0.6"/>
    <path fill-rule="evenodd" clip-rule="evenodd" d="M8.30078 17.6758H17.0898V18.6523H8.30078V17.6758Z" fill="#1F3E75" fill-opacity="0.6"/>
    <path d="M4.88281 19.6289C5.69182 19.6289 6.34766 18.9731 6.34766 18.1641C6.34766 17.3551 5.69182 16.6992 4.88281 16.6992C4.0738 16.6992 3.41797 17.3551 3.41797 18.1641C3.41797 18.9731 4.0738 19.6289 4.88281 19.6289Z" fill="#DB3429" fill-opacity="0.6"/>
    <path fill-rule="evenodd" clip-rule="evenodd" d="M8.30078 24.5117H17.0898V25.4883H8.30078V24.5117Z" fill="#1F3E75" fill-opacity="0.6"/>
    <path d="M4.88281 26.4648C5.69182 26.4648 6.34766 25.809 6.34766 25C6.34766 24.191 5.69182 23.5352 4.88281 23.5352C4.0738 23.5352 3.41797 24.191 3.41797 25C3.41797 25.809 4.0738 26.4648 4.88281 26.4648Z" fill="#DB3429" fill-opacity="0.6"/>
    <path fill-rule="evenodd" clip-rule="evenodd" d="M8.30078 31.3477H17.0898V32.3242H8.30078V31.3477Z" fill="#1F3E75" fill-opacity="0.6"/>
    <path d="M4.88281 33.3008C5.69182 33.3008 6.34766 32.6449 6.34766 31.8359C6.34766 31.0269 5.69182 30.3711 4.88281 30.3711C4.0738 30.3711 3.41797 31.0269 3.41797 31.8359C3.41797 32.6449 4.0738 33.3008 4.88281 33.3008Z" fill="#DB3429" fill-opacity="0.6"/>
    <path fill-rule="evenodd" clip-rule="evenodd" d="M33.8867 17.6758H42.6758V18.6523H33.8867V17.6758Z" fill="#1F3E75" fill-opacity="0.6"/>
    <path d="M30.4688 19.6289C31.2778 19.6289 31.9336 18.9731 31.9336 18.1641C31.9336 17.3551 31.2778 16.6992 30.4688 16.6992C29.6597 16.6992 29.0039 17.3551 29.0039 18.1641C29.0039 18.9731 29.6597 19.6289 30.4688 19.6289Z" fill="#FFC970" fill-opacity="0.7"/>
    <path fill-rule="evenodd" clip-rule="evenodd" d="M33.8867 24.5117H42.6758V25.4883H33.8867V24.5117Z" fill="#1F3E75" fill-opacity="0.6"/>
    <path d="M30.4688 26.4648C31.2778 26.4648 31.9336 25.809 31.9336 25C31.9336 24.191 31.2778 23.5352 30.4688 23.5352C29.6597 23.5352 29.0039 24.191 29.0039 25C29.0039 25.809 29.6597 26.4648 30.4688 26.4648Z" fill="#FFC970" fill-opacity="0.7"/>
    <path fill-rule="evenodd" clip-rule="evenodd" d="M33.8867 31.3477H42.6758V32.3242H33.8867V31.3477Z" fill="#1F3E75" fill-opacity="0.6"/>
    <path d="M30.4688 33.3008C31.2778 33.3008 31.9336 32.6449 31.9336 31.8359C31.9336 31.0269 31.2778 30.3711 30.4688 30.3711C29.6597 30.3711 29.0039 31.0269 29.0039 31.8359C29.0039 32.6449 29.6597 33.3008 30.4688 33.3008Z" fill="#FFC970" fill-opacity="0.7"/>
    <path d="M39.5215 5.85938C35.3223 2.66602 30.3027 0.976562 25 0.976562C19.7363 0.976562 14.7363 2.64648 10.5469 5.81055L9.96094 5.0293C14.3164 1.73828 19.5215 0 25 0C30.5078 0 35.7324 1.75781 40.1074 5.07812L39.5215 5.85938Z" fill="#1F3E75" fill-opacity="0.6"/>
    <path d="M25 50C19.5215 50 14.3164 48.2617 9.96094 44.9707L10.5469 44.1895C14.7363 47.3535 19.7363 49.0234 25 49.0234C30.293 49.0234 35.3125 47.334 39.5215 44.1406L40.1074 44.9219C35.7324 48.2422 30.5078 50 25 50Z" fill="#1F3E75" fill-opacity="0.6"/>
    <path fill-rule="evenodd" clip-rule="evenodd" d="M6.15234 12.0117H14.3555V12.9883H6.15234V12.0117Z" fill="#1F3E75" fill-opacity="0.6"/>
    <path fill-rule="evenodd" clip-rule="evenodd" d="M31.7383 12.0117H39.9414V12.9883H31.7383V12.0117Z" fill="#1F3E75" fill-opacity="0.6"/>
    <path d="M45.6055 44.5312C47.7628 44.5312 49.5117 42.7824 49.5117 40.625C49.5117 38.4676 47.7628 36.7188 45.6055 36.7188C43.4481 36.7188 41.6992 38.4676 41.6992 40.625C41.6992 42.7824 43.4481 44.5312 45.6055 44.5312Z" fill="#1F3E75" fill-opacity="0.6"/>
    <path d="M45.6055 43.1641C45.4395 43.1641 45.293 43.0762 45.2051 42.9395L43.1836 39.9707L43.9941 39.4141L45.6055 41.7773L49.1113 36.4551L49.9316 36.9922L46.0254 42.9395C45.9277 43.0664 45.7715 43.1641 45.6055 43.1641Z" fill="#4D2419" fill-opacity="0.4"/>
    <path d="M45.6055 45.0195C43.3496 45.0195 41.4844 43.3105 41.2402 41.1133H26.0742C25.8008 41.1133 25.5859 40.8984 25.5859 40.625V9.375C25.5859 9.10156 25.8008 8.88672 26.0742 8.88672H45.6055C45.8789 8.88672 46.0938 9.10156 46.0938 9.375V36.7188C46.0938 36.9922 45.8789 37.207 45.6055 37.207C43.7207 37.207 42.1875 38.7402 42.1875 40.625C42.1875 42.5098 43.7207 44.043 45.6055 44.043C47.4902 44.043 49.0234 42.5098 49.0234 40.625C49.0234 39.8242 48.7402 39.043 48.2227 38.4277L48.9746 37.8027C49.6387 38.5938 50.0098 39.5996 50.0098 40.6348C50 43.0469 48.0273 45.0195 45.6055 45.0195ZM26.5625 40.1367H41.2402C41.4648 38.1055 43.0859 36.4844 45.1172 36.2598V9.86328H26.5625V40.1367Z" fill="#4D2419" fill-opacity="0.4"/>
    <path d="M20.0195 45.0195C17.5977 45.0195 15.625 43.0469 15.625 40.625C15.625 38.2031 17.5977 36.2305 20.0195 36.2305C22.4414 36.2305 24.4141 38.2031 24.4141 40.625C24.4141 43.0469 22.4414 45.0195 20.0195 45.0195ZM20.0195 37.207C18.1348 37.207 16.6016 38.7402 16.6016 40.625C16.6016 42.5098 18.1348 44.043 20.0195 44.043C21.9043 44.043 23.4375 42.5098 23.4375 40.625C23.4375 38.7402 21.9043 37.207 20.0195 37.207Z" fill="#4D2419" fill-opacity="0.4"/>
    <path fill-rule="evenodd" clip-rule="evenodd" d="M21.1372 38.8086L21.8276 39.499L18.9002 42.4264L18.2098 41.736L21.1372 38.8086Z" fill="#4D2419" fill-opacity="0.4"/>
    <path fill-rule="evenodd" clip-rule="evenodd" d="M18.9033 38.8105L21.8307 41.738L21.1403 42.4284L18.2129 39.501L18.9033 38.8105Z" fill="#4D2419" fill-opacity="0.4"/>
    <path fill-rule="evenodd" clip-rule="evenodd" d="M8.30078 17.6758H17.0898V18.6523H8.30078V17.6758Z" fill="#4D2419" fill-opacity="0.4"/>
    <path d="M4.88281 20.1172C3.80859 20.1172 2.92969 19.2383 2.92969 18.1641C2.92969 17.0898 3.80859 16.2109 4.88281 16.2109C5.95703 16.2109 6.83594 17.0898 6.83594 18.1641C6.83594 19.2383 5.95703 20.1172 4.88281 20.1172ZM4.88281 17.1875C4.3457 17.1875 3.90625 17.627 3.90625 18.1641C3.90625 18.7012 4.3457 19.1406 4.88281 19.1406C5.41992 19.1406 5.85938 18.7012 5.85938 18.1641C5.85938 17.627 5.41992 17.1875 4.88281 17.1875Z" fill="#4D2419" fill-opacity="0.4"/>
    <path fill-rule="evenodd" clip-rule="evenodd" d="M8.30078 24.5117H17.0898V25.4883H8.30078V24.5117Z" fill="#4D2419" fill-opacity="0.4"/>
    <path d="M4.88281 26.9531C3.80859 26.9531 2.92969 26.0742 2.92969 25C2.92969 23.9258 3.80859 23.0469 4.88281 23.0469C5.95703 23.0469 6.83594 23.9258 6.83594 25C6.83594 26.0742 5.95703 26.9531 4.88281 26.9531ZM4.88281 24.0234C4.3457 24.0234 3.90625 24.4629 3.90625 25C3.90625 25.5371 4.3457 25.9766 4.88281 25.9766C5.41992 25.9766 5.85938 25.5371 5.85938 25C5.85938 24.4629 5.41992 24.0234 4.88281 24.0234Z" fill="#4D2419" fill-opacity="0.4"/>
    <path fill-rule="evenodd" clip-rule="evenodd" d="M8.30078 31.3477H17.0898V32.3242H8.30078V31.3477Z" fill="#4D2419" fill-opacity="0.4"/>
    <path d="M4.88281 33.7891C3.80859 33.7891 2.92969 32.9102 2.92969 31.8359C2.92969 30.7617 3.80859 29.8828 4.88281 29.8828C5.95703 29.8828 6.83594 30.7617 6.83594 31.8359C6.83594 32.9102 5.95703 33.7891 4.88281 33.7891ZM4.88281 30.8594C4.3457 30.8594 3.90625 31.2988 3.90625 31.8359C3.90625 32.373 4.3457 32.8125 4.88281 32.8125C5.41992 32.8125 5.85938 32.373 5.85938 31.8359C5.85938 31.2988 5.41992 30.8594 4.88281 30.8594Z" fill="#4D2419" fill-opacity="0.4"/>
    <path fill-rule="evenodd" clip-rule="evenodd" d="M33.8867 17.6758H42.6758V18.6523H33.8867V17.6758Z" fill="#4D2419" fill-opacity="0.4"/>
    <path d="M30.4688 20.1172C29.3945 20.1172 28.5156 19.2383 28.5156 18.1641C28.5156 17.0898 29.3945 16.2109 30.4688 16.2109C31.543 16.2109 32.4219 17.0898 32.4219 18.1641C32.4219 19.2383 31.543 20.1172 30.4688 20.1172ZM30.4688 17.1875C29.9316 17.1875 29.4922 17.627 29.4922 18.1641C29.4922 18.7012 29.9316 19.1406 30.4688 19.1406C31.0059 19.1406 31.4453 18.7012 31.4453 18.1641C31.4453 17.627 31.0059 17.1875 30.4688 17.1875Z" fill="#4D2419" fill-opacity="0.4"/>
    <path fill-rule="evenodd" clip-rule="evenodd" d="M33.8867 24.5117H42.6758V25.4883H33.8867V24.5117Z" fill="#4D2419" fill-opacity="0.4"/>
    <path d="M30.4688 26.9531C29.3945 26.9531 28.5156 26.0742 28.5156 25C28.5156 23.9258 29.3945 23.0469 30.4688 23.0469C31.543 23.0469 32.4219 23.9258 32.4219 25C32.4219 26.0742 31.543 26.9531 30.4688 26.9531ZM30.4688 24.0234C29.9316 24.0234 29.4922 24.4629 29.4922 25C29.4922 25.5371 29.9316 25.9766 30.4688 25.9766C31.0059 25.9766 31.4453 25.5371 31.4453 25C31.4453 24.4629 31.0059 24.0234 30.4688 24.0234Z" fill="#4D2419" fill-opacity="0.4"/>
    <path fill-rule="evenodd" clip-rule="evenodd" d="M33.8867 31.3477H42.6758V32.3242H33.8867V31.3477Z" fill="#4D2419" fill-opacity="0.4"/>
    <path d="M30.4688 33.7891C29.3945 33.7891 28.5156 32.9102 28.5156 31.8359C28.5156 30.7617 29.3945 29.8828 30.4688 29.8828C31.543 29.8828 32.4219 30.7617 32.4219 31.8359C32.4219 32.9102 31.543 33.7891 30.4688 33.7891ZM30.4688 30.8594C29.9316 30.8594 29.4922 31.2988 29.4922 31.8359C29.4922 32.373 29.9316 32.8125 30.4688 32.8125C31.0059 32.8125 31.4453 32.373 31.4453 31.8359C31.4453 31.2988 31.0059 30.8594 30.4688 30.8594Z" fill="#4D2419" fill-opacity="0.4"/>
    <path d="M39.5215 5.85938C35.3223 2.66602 30.3027 0.976562 25 0.976562C19.7363 0.976562 14.7363 2.64648 10.5469 5.81055L9.96094 5.0293C14.3164 1.73828 19.5215 0 25 0C30.5078 0 35.7324 1.75781 40.1074 5.07812L39.5215 5.85938Z" fill="#4D2419" fill-opacity="0.4"/>
    <path d="M25 50C19.5215 50 14.3164 48.2617 9.96094 44.9707L10.5469 44.1895C14.7363 47.3535 19.7363 49.0234 25 49.0234C30.293 49.0234 35.3125 47.334 39.5215 44.1406L40.1074 44.9219C35.7324 48.2422 30.5078 50 25 50Z" fill="#4D2419" fill-opacity="0.4"/>
    <path fill-rule="evenodd" clip-rule="evenodd" d="M6.15234 12.0117H14.3555V12.9883H6.15234V12.0117Z" fill="#4D2419" fill-opacity="0.4"/>
    <path fill-rule="evenodd" clip-rule="evenodd" d="M31.7383 12.0117H39.9414V12.9883H31.7383V12.0117Z" fill="#4D2419" fill-opacity="0.4"/>
    <path d="M14.1602 41.1133H0.488281C0.214844 41.1133 0 40.8984 0 40.625V9.375C0 9.10156 0.214844 8.88672 0.488281 8.88672H20.0195C20.293 8.88672 20.5078 9.10156 20.5078 9.375V36.7188H19.5312V9.86328H0.976562V40.1367H14.1602V41.1133Z" fill="#4D2419" fill-opacity="0.4"/>
  </g>
  <defs>
    <clipPath id="clip0_17754_76558">
      <rect width="50" height="50" fill="white"/>
    </clipPath>
  </defs>
</svg>